<?xml version="1.0" encoding="utf-8"?>
<!-- Generator: Adobe Illustrator 21.1.0, SVG Export Plug-In . SVG Version: 6.00 Build 0)  -->
<svg version="1.1" id="Layer_1" xmlns="http://www.w3.org/2000/svg" xmlns:xlink="http://www.w3.org/1999/xlink" x="0px" y="0px"
	 viewBox="0 0 245.7 245.7" style="enable-background:new 0 0 245.7 245.7;" xml:space="preserve">
<style type="text/css">
	.st0{opacity:0.15;}
	.st1{clip-path:url(#SVGID_2_);fill:#FFFFFF;}
</style>
<g class="st0">
	<defs>
		<circle id="SVGID_1_" class="st0" cx="122.8" cy="122.8" r="122.8"/>
	</defs>
	<clipPath id="SVGID_2_">
		<use xlink:href="#SVGID_1_"  style="overflow:visible;"/>
	</clipPath>
	
		<rect x="70.5" y="60.5" transform="matrix(0.6696 -0.7427 0.7427 0.6696 -138.6551 128.0386)" class="st1" width="8.1" height="318.7"/>
	
		<rect x="79" y="51.1" transform="matrix(0.6696 -0.7427 0.7427 0.6696 -128.9127 131.2138)" class="st1" width="8.1" height="318.7"/>
	
		<rect x="87.4" y="41.8" transform="matrix(0.6696 -0.7427 0.7427 0.6696 -119.1703 134.3891)" class="st1" width="8.1" height="318.7"/>
	
		<rect x="95.8" y="32.4" transform="matrix(0.6696 -0.7427 0.7427 0.6696 -109.4279 137.5644)" class="st1" width="8.1" height="318.7"/>
	
		<rect x="104.3" y="23" transform="matrix(0.6696 -0.7427 0.7427 0.6696 -99.6855 140.7396)" class="st1" width="8.1" height="318.7"/>
	
		<rect x="112.7" y="13.7" transform="matrix(0.6696 -0.7427 0.7427 0.6696 -89.9431 143.9149)" class="st1" width="8.1" height="318.7"/>
	
		<rect x="156.6" y="-155.6" transform="matrix(0.7427 0.6696 -0.6696 0.7427 45.0605 -109.6764)" class="st1" width="17.3" height="318.7"/>
	
		<rect x="183.9" y="-137.4" transform="matrix(0.7427 0.6696 -0.6696 0.7427 64.2023 -123.275)" class="st1" width="17.3" height="318.7"/>
	
		<rect x="203.9" y="-119.4" transform="matrix(0.7427 0.6696 -0.6696 0.7427 81.452 -132.0444)" class="st1" width="17.3" height="318.7"/>
	
		<rect x="223.9" y="-101.3" transform="matrix(0.7427 0.6696 -0.6696 0.7427 98.7017 -140.8139)" class="st1" width="17.3" height="318.7"/>
	
		<rect x="244" y="-83.3" transform="matrix(0.7427 0.6696 -0.6696 0.7427 115.9514 -149.5834)" class="st1" width="17.3" height="318.7"/>
	
		<rect x="264" y="-65.2" transform="matrix(0.7427 0.6696 -0.6696 0.7427 133.2012 -158.3529)" class="st1" width="17.3" height="318.7"/>
	
		<rect x="188.7" y="-70.6" transform="matrix(0.6696 -0.7427 0.7427 0.6696 -2.2615 172.4923)" class="st1" width="8.1" height="318.7"/>
	
		<rect x="197.1" y="-79.9" transform="matrix(0.6696 -0.7427 0.7427 0.6696 7.4809 175.6676)" class="st1" width="8.1" height="318.7"/>
	
		<rect x="205.6" y="-89.3" transform="matrix(0.6696 -0.7427 0.7427 0.6696 17.2233 178.8428)" class="st1" width="8.1" height="318.7"/>
</g>
</svg>
