<?xml version="1.0" encoding="utf-8"?>
<!-- Generator: Adobe Illustrator 21.1.0, SVG Export Plug-In . SVG Version: 6.00 Build 0)  -->
<svg version="1.1" id="Layer_1" xmlns="http://www.w3.org/2000/svg" xmlns:xlink="http://www.w3.org/1999/xlink" x="0px" y="0px"
	 viewBox="0 0 245.7 245.7" style="enable-background:new 0 0 245.7 245.7;" xml:space="preserve">
<style type="text/css">
	.st0{opacity:0.15;}
	.st1{clip-path:url(#SVGID_2_);fill:#FFFFFF;}
</style>
<g class="st0">
	<defs>
		<circle id="SVGID_1_" class="st0" cx="122.8" cy="122.8" r="122.8"/>
	</defs>
	<clipPath id="SVGID_2_">
		<use xlink:href="#SVGID_1_"  style="overflow:visible;"/>
	</clipPath>
	<rect x="-26.1" y="-127" class="st1" width="13.5" height="531"/>
	<rect x="-5.1" y="-127" class="st1" width="13.5" height="531"/>
	<rect x="15.9" y="-127" class="st1" width="13.5" height="531"/>
	<rect x="36.9" y="-127" class="st1" width="13.5" height="531"/>
	<rect x="57.9" y="-127" class="st1" width="13.5" height="531"/>
	<rect x="78.9" y="-127" class="st1" width="13.5" height="531"/>
	
		<rect x="334.7" y="-255.8" transform="matrix(-1.836970e-16 1 -1 -1.836970e-16 358.8182 -339.4658)" class="st1" width="28.9" height="531"/>
	
		<rect x="342.7" y="-201.9" transform="matrix(-1.836970e-16 1 -1 -1.836970e-16 420.7672 -293.5297)" class="st1" width="28.9" height="531"/>
	
		<rect x="342.7" y="-156.9" transform="matrix(-1.836970e-16 1 -1 -1.836970e-16 465.7097 -248.5871)" class="st1" width="28.9" height="531"/>
	
		<rect x="342.7" y="-112" transform="matrix(-1.836970e-16 1 -1 -1.836970e-16 510.6523 -203.6446)" class="st1" width="28.9" height="531"/>
	
		<rect x="342.7" y="-67" transform="matrix(-1.836970e-16 1 -1 -1.836970e-16 555.5948 -158.7021)" class="st1" width="28.9" height="531"/>
	
		<rect x="342.7" y="-22.1" transform="matrix(-1.836970e-16 1 -1 -1.836970e-16 600.5374 -113.7595)" class="st1" width="28.9" height="531"/>
	<rect x="267.9" y="-127" class="st1" width="13.5" height="531"/>
	<rect x="288.9" y="-127" class="st1" width="13.5" height="531"/>
	<rect x="309.9" y="-127" class="st1" width="13.5" height="531"/>
</g>
</svg>
