<?xml version="1.0" encoding="utf-8"?>
<!-- Generator: Adobe Illustrator 21.1.0, SVG Export Plug-In . SVG Version: 6.00 Build 0)  -->
<svg version="1.1" id="Layer_1" xmlns="http://www.w3.org/2000/svg" xmlns:xlink="http://www.w3.org/1999/xlink" x="0px" y="0px"
	 viewBox="0 0 232.2 64.6" style="enable-background:new 0 0 232.2 64.6;" xml:space="preserve">
<style type="text/css">
	.st0{fill:#221F1F;}
	.st1{fill:#C1191A;}
	.st2{fill:#1F5EA8;}
	.st3{fill:#F6A000;}
</style>
<g>
	<path class="st0" d="M232.2,39.8c0-11.4-9.3-20.8-20.7-20.9c-5.9,0-11.2,2.3-15,6.1v0c1.6,1.6,4.1,1.9,6,0.7
		c2.6-1.6,5.7-2.6,9.1-2.5c8.6,0.2,15.8,7,16.2,15.7c0.5,9.6-7.1,17.5-16.5,17.5c-3.2,0-6.2-0.9-8.7-2.5c-1.9-1.2-4.5-0.9-6.1,0.7
		l0,0c3.8,3.8,9,6.1,14.8,6.1c2.4,0,4.6-0.4,6.8-1.1l8.2,4.4c2.1,1.1,4.8,0.3,6-1.8l0,0c-2.2-1.2-5.7-3-9.3-5
		C228.5,53.5,232.2,47.1,232.2,39.8z"/>
	<path class="st0" d="M192.2,19.6h-26.3v0c0,2.4,2,4.4,4.4,4.4h6.6v36.1h4.4V24h6.6C190.3,24,192.2,22.1,192.2,19.6L192.2,19.6z"/>
	<path class="st0" d="M155.4,53.9c-2.6,1.6-5.7,2.6-9.1,2.5c-8.6-0.2-15.8-7-16.2-15.7c-0.5-9.6,7.1-17.5,16.5-17.5
		c3.2,0,6.2,0.9,8.7,2.5c1.9,1.2,4.5,0.9,6.1-0.7l0,0c-3.8-3.8-9.1-6.2-15-6.1c-11.3,0.1-20.6,9.3-20.7,20.6
		c-0.2,11.7,9.3,21.2,20.9,21.2c5.8,0,11-2.3,14.8-6.1l0,0C159.8,53.1,157.3,52.7,155.4,53.9z"/>
	<path class="st0" d="M97.7,19.1c-7.5-0.8-14.4,2.4-18.6,7.7c-0.6,0.8-1.6,1-2.5,0.5L55,15.9c-0.9-0.5-1.4-1.5-1.3-2.6
		c0.1-0.3,0.1-0.7,0.1-1.1c0.2-3.1-0.8-6-2.9-8.3c-2-2.3-4.9-3.7-7.9-3.9c-3.1-0.2-6,0.8-8.3,2.9c-2.3,2-3.7,4.9-3.9,7.9
		c-0.1,2.2,0.4,4.4,1.4,6.2c0.5,0.8,0.4,1.8-0.3,2.5l-5.5,5.9c-0.5,0.6-1.4,0.7-2.1,0.3c-3-1.7-6.6-2.6-10.5-2
		c-7.2,1-12.9,7-13.7,14.2C-1,47.8,6.7,56.1,16.2,56.1c7.7,0,14.1-5.4,15.8-12.5c0.2-0.9,1-1.5,1.9-1.5h39c1,0,1.8,0.7,2,1.6
		c1.8,9.7,10.3,17.1,20.6,17.1c12.3,0,22.2-10.7,20.8-23.3C115.1,27.9,107.3,20.1,97.7,19.1z M75.5,33.5c-0.3,0.9-0.5,1.9-0.7,2.8
		c-0.1,0.8-0.9,1.4-1.7,1.4H34c-1,0-1.8-0.7-2-1.6c-0.5-1.9-1.2-3.7-2.3-5.2c-0.6-0.8-0.5-1.9,0.2-2.7l5.4-5.8
		c0.5-0.6,1.4-0.7,2.1-0.4c1.3,0.6,2.7,1,4.3,1.1c0.2,0,0.5,0,0.7,0c3.1,0,5.9-1.2,8-3.2c0.6-0.6,1.6-0.8,2.4-0.4l21.9,11.7
		C75.4,31.7,75.8,32.6,75.5,33.5z M35.1,11.1c0.1-1.9,1-3.7,2.4-5c1.3-1.2,3-1.8,4.8-1.8c0.6,0,1.3,0.1,2,0.3
		c0.8,0.2,1.6,0.6,2.2,1.1c2.1,1.5,3.1,3.8,3,6.3c-0.2,4-3.6,7-7.6,6.8C37.9,18.5,34.9,15.1,35.1,11.1z M17.8,51.7
		c-7.8,1-14.3-5.6-13.4-13.4c0.7-5.3,5-9.6,10.3-10.3c7.8-1,14.3,5.6,13.4,13.4C27.4,46.7,23.1,51,17.8,51.7z M97.1,56.4
		c-10.5,1-19.2-7.7-18.2-18.2c0.8-7.8,7-14,14.8-14.8c10.5-1,19.3,7.7,18.2,18.2C111.1,49.4,104.9,55.6,97.1,56.4z"/>
	<path class="st1" d="M47,11.5c0,2.6-2.1,4.7-4.7,4.7c-2.6,0-4.7-2.1-4.7-4.7c0-2.6,2.1-4.7,4.7-4.7C44.9,6.8,47,8.9,47,11.5
		L47,11.5z"/>
	<path class="st2" d="M25.4,39.9c0,5-4.1,9.1-9.1,9.1c-5,0-9.1-4.1-9.1-9.1s4.1-9.1,9.1-9.1C21.3,30.8,25.4,34.8,25.4,39.9
		L25.4,39.9z"/>
	<circle class="st3" cx="95.4" cy="39.9" r="13.6"/>
</g>
</svg>
