<?xml version="1.0" encoding="utf-8"?>
<!-- Generator: Adobe Illustrator 21.1.0, SVG Export Plug-In . SVG Version: 6.00 Build 0)  -->
<svg version="1.1" id="Layer_1" xmlns="http://www.w3.org/2000/svg" xmlns:xlink="http://www.w3.org/1999/xlink" x="0px" y="0px"
	 viewBox="0 0 40 40" style="enable-background:new 0 0 40 40;" xml:space="preserve">
<g>
	<path d="M8.3,11.7c2.4,0,4.2-1.8,4.2-4.2V5.8c0-2.4-1.7-4.2-4.2-4.2c-2.4,0-4.2,1.8-4.2,4.2v1.7C4.2,9.9,5.9,11.7,8.3,11.7z
		 M5.8,5.8c0-1.5,1-2.5,2.5-2.5s2.5,1,2.5,2.5v1.7c0,1.5-1,2.5-2.5,2.5S5.8,9,5.8,7.5V5.8z"/>
	<rect x="7.5" y="27.5" width="1.7" height="12.5"/>
	<path d="M37.6,9.3l2.1-2c0.2-0.2,0.3-0.4,0.3-0.7c0-0.2-0.1-0.5-0.3-0.6c-3.1-2.2-6.4-3-9.7-2.1V2.5c0-0.3-0.2-0.6-0.5-0.8
		c-2.3-1.1-5.9-1.2-8.7-0.4V0h-1.7v2.5v6.7v3.3H5c-2.4,0-5,1.8-5,5V25c0,1.9,1.5,3.6,3.3,4.1V40H5V19.2H3.3v8.2
		c-1-0.4-1.7-1.4-1.7-2.3v-7.5c0-2.3,1.7-3.3,3.3-3.3h17.1c-0.4,1-1.3,2.5-3,2.5h-6.6c-0.5,0-0.8,0.4-0.8,0.8V40h1.7V18.3h5.8V40
		h1.7V18c2.5-1.1,3.3-4.3,3.3-4.5c0.1-0.2,0-0.5-0.2-0.7c-0.2-0.2-0.4-0.3-0.6-0.3h-2.5V9.8C23,9,26.1,9,28.3,9.8v1.9
		c0,0.3,0.1,0.5,0.4,0.7c0.2,0.2,0.5,0.2,0.8,0.1c3-1.1,6.3-0.6,9.2,1.6c0.1,0.1,0.3,0.2,0.5,0.2c0.2,0,0.4-0.1,0.6-0.2
		c0.3-0.3,0.4-0.7,0.1-1L37.6,9.3z M20.8,8V3.1c2.2-0.8,5.4-0.8,7.5,0V5v3C26,7.3,23.1,7.3,20.8,8z M32.5,10.2
		c-0.9,0-1.7,0.1-2.6,0.3V9.2V5.6c2.6-0.8,5.3-0.4,7.9,1.2l-1.8,1.8c-0.3,0.3-0.3,0.7-0.1,1l0.9,1.4C35.3,10.5,33.9,10.2,32.5,10.2z
		"/>
</g>
</svg>
