<?xml version="1.0" encoding="utf-8"?>
<!-- Generator: Adobe Illustrator 21.1.0, SVG Export Plug-In . SVG Version: 6.00 Build 0)  -->
<svg version="1.1" id="Layer_1" xmlns="http://www.w3.org/2000/svg" xmlns:xlink="http://www.w3.org/1999/xlink" x="0px" y="0px"
	 viewBox="0 0 40 36.2" style="enable-background:new 0 0 40 36.2;" xml:space="preserve">
<g>
	<polygon points="15.7,0 15.7,9.4 17.3,9.4 17.3,1.5 38.5,1.5 38.5,24.2 17.3,24.2 17.3,18.9 15.7,18.9 15.7,25.7 40,25.7 40,0 	"/>
	<path d="M8.6,10.2c2.4,0,4.3-2,4.3-4.5V4.5C12.9,2,11,0,8.6,0C6.2,0,4.4,2,4.4,4.5v1.2C4.4,8.2,6.2,10.2,8.6,10.2z M5.9,4.5
		c0-1.7,1.2-3,2.7-3c1.5,0,2.7,1.3,2.7,3v1.2c0,1.7-1.2,3-2.7,3c-1.5,0-2.7-1.3-2.7-3V4.5z"/>
	<path d="M22.5,12v-0.7H5.1C1.5,11.3,0,13,0,17.2v6.1c0,2.6,1.3,4.2,3.4,4.2h0.1v8.8H5v-19H3.5V26H3.4c-1.6,0-1.9-1.7-1.9-2.7v-6.1
		c0-3.8,1.2-4.4,3.6-4.4h15.8c-0.2,1.4-1.1,2-2.7,2h-6v21.5h1.5v-20h4.5C21,16.2,22.5,14.7,22.5,12z"/>
	<rect x="7.9" y="24.1" width="1.5" height="12.1"/>
	<polygon points="20,20.5 24.8,20.5 26.6,17.1 31,17.1 34.5,8.4 36.6,8.4 36.6,6.9 33.5,6.9 30,15.6 25.7,15.6 23.9,19 20,19 	"/>
</g>
</svg>
