<?xml version="1.0" encoding="utf-8"?>
<!-- Generator: Adobe Illustrator 21.1.0, SVG Export Plug-In . SVG Version: 6.00 Build 0)  -->
<svg version="1.1" id="Layer_1" xmlns="http://www.w3.org/2000/svg" xmlns:xlink="http://www.w3.org/1999/xlink" x="0px" y="0px"
	 viewBox="0 0 40 20" style="enable-background:new 0 0 40 20;" xml:space="preserve">
<path d="M23.4,19.4l16.1-4.3l-0.2-0.9l-16.1,4.3l14.4-8.3l-0.4-0.8l-14.4,8.3L34.5,6.1l-0.6-0.6L22.1,17.2l8.3-14.3l-0.8-0.4
	l-8.3,14.3l4.3-16l-0.9-0.2l-4.3,16V0h-0.9v16.5l-4.3-16l-0.9,0.2l4.3,16L10.4,2.4L9.6,2.9l8.3,14.3L6.2,5.5L5.5,6.1l11.8,11.7
	L2.9,9.6l-0.4,0.8l14.4,8.3L0.8,14.3l-0.2,0.9l16.1,4.3H0V20h40v-0.6H23.4z"/>
</svg>
