<?xml version="1.0" encoding="utf-8"?>
<!-- Generator: Adobe Illustrator 21.1.0, SVG Export Plug-In . SVG Version: 6.00 Build 0)  -->
<svg version="1.1" id="Layer_1" xmlns="http://www.w3.org/2000/svg" xmlns:xlink="http://www.w3.org/1999/xlink" x="0px" y="0px"
	 viewBox="0 0 40 8.6" style="enable-background:new 0 0 40 8.6;" xml:space="preserve">
<style type="text/css">
	.st0{fill-rule:evenodd;clip-rule:evenodd;}
</style>
<g>
	<path class="st0" d="M20,0c2.5,0,4.6,1.9,4.6,4.3s-2,4.3-4.6,4.3c-2.5,0-4.6-1.9-4.6-4.3S17.5,0,20,0z"/>
	<path class="st0" d="M4.6,0c2.5,0,4.6,1.9,4.6,4.3s-2,4.3-4.6,4.3C2,8.6,0,6.7,0,4.3S2,0,4.6,0z"/>
	<path class="st0" d="M35.4,0C38,0,40,1.9,40,4.3s-2,4.3-4.6,4.3c-2.5,0-4.6-1.9-4.6-4.3S32.9,0,35.4,0z"/>
</g>
</svg>
