<?xml version="1.0" encoding="utf-8"?>
<!-- Generator: Adobe Illustrator 21.1.0, SVG Export Plug-In . SVG Version: 6.00 Build 0)  -->
<svg version="1.1" id="Layer_1" xmlns="http://www.w3.org/2000/svg" xmlns:xlink="http://www.w3.org/1999/xlink" x="0px" y="0px"
	 viewBox="0 0 40 40" style="enable-background:new 0 0 40 40;" xml:space="preserve">
<path d="M37,0H3C1.3,0,0,1.3,0,2.9v34.2C0,38.7,1.3,40,3,40h18.4V24.5h-5.2v-6h5.2V14c0-5.2,3.2-8,7.8-8c2.2,0,4.1,0.2,4.7,0.2v5.4
	l-3.2,0c-2.5,0-3,1.2-3,2.9v3.9h6l-0.8,6h-5.2V40H37c1.6,0,3-1.3,3-2.9V2.9C40,1.3,38.7,0,37,0z"/>
</svg>
