<?xml version="1.0" encoding="utf-8"?>
<!-- Generator: Adobe Illustrator 21.1.0, SVG Export Plug-In . SVG Version: 6.00 Build 0)  -->
<svg version="1.1" id="Layer_1" xmlns="http://www.w3.org/2000/svg" xmlns:xlink="http://www.w3.org/1999/xlink" x="0px" y="0px"
	 viewBox="0 0 40 40" style="enable-background:new 0 0 40 40;" xml:space="preserve">
<g>
	<path d="M39.6,18.2c0.6-0.6,0.6-1.5,0-2c-0.6-0.6-1.5-0.6-2,0l-0.4,0.4l-8-2.7l-9.4-9.4l2-2c0.6-0.6,0.6-1.5,0-2
		c-0.6-0.6-1.5-0.6-2,0L0.4,19.7c-0.6,0.6-0.6,1.5,0,2c0.6,0.6,1.5,0.6,2,0l2-2l9.4,9.4l2.7,8l-0.4,0.4c-0.6,0.6-0.6,1.5,0,2
		c0.6,0.6,1.5,0.6,2,0l1-1l8.6-8.6l9.2,9.2c0.6,0.6,1.5,0.6,2,0c0.6-0.6,0.6-1.5,0-2l-9.2-9.2l8.6-8.6L39.6,18.2z M18.8,34.9l-2.3-7
		c-0.1-0.2-0.2-0.4-0.4-0.6l-9.7-9.7L17.7,6.5l9.7,9.7c0.2,0.2,0.4,0.3,0.6,0.4l7,2.3L18.8,34.9z"/>
	<path d="M18.7,10.6c-0.6-0.6-1.5-0.6-2,0c-0.6,0.6-0.6,1.5,0,2l5.1,5.1c0.6,0.6,1.5,0.6,2,0c0.6-0.6,0.6-1.5,0-2L18.7,10.6z"/>
</g>
</svg>
