<?xml version="1.0" encoding="utf-8"?>
<!-- Generator: Adobe Illustrator 21.1.0, SVG Export Plug-In . SVG Version: 6.00 Build 0)  -->
<svg version="1.1" id="Layer_1" xmlns="http://www.w3.org/2000/svg" xmlns:xlink="http://www.w3.org/1999/xlink" x="0px" y="0px"
	 viewBox="0 0 40 40" style="enable-background:new 0 0 40 40;" xml:space="preserve">
<path d="M28.8,4.9c-6.6-6.6-17.3-6.6-23.9,0c-6.6,6.6-6.6,17.3,0,23.9c5.7,5.7,14.4,6.5,20.9,2.3l8.9,8.9l5.3-5.3l-8.9-8.9
	C35.3,19.4,34.5,10.6,28.8,4.9z M25.1,25.1c-4.5,4.5-11.9,4.5-16.5,0c-4.5-4.5-4.5-11.9,0-16.5c4.5-4.5,11.9-4.5,16.5,0
	C29.6,13.2,29.6,20.6,25.1,25.1z"/>
</svg>
