<?xml version="1.0" encoding="utf-8"?>
<!-- Generator: Adobe Illustrator 21.1.0, SVG Export Plug-In . SVG Version: 6.00 Build 0)  -->
<svg version="1.1" id="Layer_1" xmlns="http://www.w3.org/2000/svg" xmlns:xlink="http://www.w3.org/1999/xlink" x="0px" y="0px"
	 viewBox="0 0 40 40" style="enable-background:new 0 0 40 40;" xml:space="preserve">
<g>
	<path d="M7,29.2c2.1,0,3.7-1.7,3.7-3.8c0-2.1-1.7-3.7-3.8-3.7c-2.1,0-3.7,1.7-3.7,3.8C3.3,27.5,4.9,29.2,7,29.2z M7,23.3
		c1.1,0,2.1,0.9,2.1,2.1c0,1.2-0.9,2.1-2.1,2.1c-1.2,0-2.1-0.9-2.1-2.1C4.9,24.3,5.8,23.3,7,23.3z"/>
	<path d="M20,29.2c2.1,0,3.7-1.7,3.7-3.8c0-2.1-1.7-3.7-3.8-3.7c-2.1,0-3.7,1.7-3.7,3.8C16.3,27.5,18,29.2,20,29.2z M20,23.3
		c1.1,0,2.1,0.9,2.1,2.1c0,1.2-0.9,2.1-2.1,2.1c-1.2,0-2.1-0.9-2.1-2.1C17.9,24.3,18.8,23.3,20,23.3z"/>
	<path d="M33,29.2c2.1,0,3.7-1.7,3.7-3.8c0-2.1-1.7-3.7-3.8-3.7c-2.1,0-3.7,1.7-3.7,3.8C29.3,27.5,31,29.2,33,29.2z M33,23.3
		c1.1,0,2.1,0.9,2.1,2.1c0,1.2-0.9,2.1-2.1,2.1c-1.2,0-2.1-0.9-2.1-2.1C30.9,24.3,31.8,23.3,33,23.3z"/>
	<path d="M36.3,30h-6.7c-1.4,0-2.5,1.1-2.5,2.4l-0.7,4.4l-0.7-4.4c0-1.3-1.1-2.4-2.5-2.4h-6.7c-1.4,0-2.5,1.1-2.5,2.4l-0.7,4.4
		l-0.7-4.4c0-1.3-1.1-2.4-2.5-2.4H3.7c-1.4,0-2.5,1.1-2.5,2.4L0,40h1.7l1.1-7.4l0-0.1c0-0.5,0.4-0.8,0.8-0.8h6.7
		c0.5,0,0.8,0.4,0.8,0.8l1.1,7.5H13h1h0.7l1.1-7.4l0-0.1c0-0.5,0.4-0.8,0.8-0.8h6.7c0.5,0,0.8,0.4,0.8,0.8l1.1,7.5H26h1h0.7l1.1-7.4
		l0-0.1c0-0.5,0.4-0.8,0.8-0.8h6.7c0.5,0,0.8,0.4,0.8,0.8l1.1,7.5H40l-1.2-7.6C38.8,31.1,37.7,30,36.3,30z"/>
	<path d="M35.8,4.2H18.3c-0.5,0-0.8,0.4-0.8,0.8c0,0.5,0.4,0.8,0.8,0.8h17.5c0.5,0,0.8-0.4,0.8-0.8C36.7,4.5,36.3,4.2,35.8,4.2z"/>
	<path d="M35.8,6.7H18.3c-0.5,0-0.8,0.4-0.8,0.8c0,0.5,0.4,0.8,0.8,0.8h17.5c0.5,0,0.8-0.4,0.8-0.8C36.7,7,36.3,6.7,35.8,6.7z"/>
	<path d="M35.8,9.2H18.3c-0.5,0-0.8,0.4-0.8,0.8c0,0.5,0.4,0.8,0.8,0.8h17.5c0.5,0,0.8-0.4,0.8-0.8C36.7,9.5,36.3,9.2,35.8,9.2z"/>
	<path d="M35.8,11.7H18.3c-0.5,0-0.8,0.4-0.8,0.8c0,0.5,0.4,0.8,0.8,0.8h17.5c0.5,0,0.8-0.4,0.8-0.8C36.7,12,36.3,11.7,35.8,11.7z"
		/>
	<path d="M37.5,0h-35C1.1,0,0,1.1,0,2.5V15c0,1.4,1.1,2.5,2.5,2.5h3.3V20c0,0.3,0.2,0.6,0.5,0.8c0.1,0.1,0.2,0.1,0.4,0.1
		c0.2,0,0.4-0.1,0.5-0.2l3.9-3.2h6l2.2,3c0.2,0.2,0.4,0.3,0.7,0.3c0.3,0,0.5-0.1,0.7-0.3l2.3-3h6l3.9,3.2c0.2,0.1,0.3,0.2,0.5,0.2
		c0.1,0,0.2,0,0.4-0.1c0.3-0.1,0.5-0.4,0.5-0.8v-2.5h3.3c1.4,0,2.5-1.1,2.5-2.5V2.5C40,1.1,38.9,0,37.5,0z M38.3,15
		c0,0.5-0.4,0.8-0.8,0.8h-4.2h-0.8v2.4l-3-2.4h-0.3h-6.7h-0.4L20,18.6l-2.1-2.8h-0.4h-6.7h-0.3l-3,2.4v-2.4H6.7H2.5
		c-0.5,0-0.8-0.4-0.8-0.8V2.5C1.7,2,2,1.7,2.5,1.7h35c0.5,0,0.8,0.4,0.8,0.8V15z"/>
	<path d="M13.3,4.2H5.8c-1.4,0-2.5,1.1-2.5,2.5v4.2c0,1.4,1.1,2.5,2.5,2.5h7.5c1.4,0,2.5-1.1,2.5-2.5V6.7
		C15.8,5.3,14.7,4.2,13.3,4.2z M14.2,10.8c0,0.5-0.4,0.8-0.8,0.8H5.8c-0.5,0-0.8-0.4-0.8-0.8V6.7c0-0.5,0.4-0.8,0.8-0.8h7.5
		c0.5,0,0.8,0.4,0.8,0.8V10.8z"/>
</g>
</svg>
