<?xml version="1.0" encoding="utf-8"?>
<!-- Generator: Adobe Illustrator 21.1.0, SVG Export Plug-In . SVG Version: 6.00 Build 0)  -->
<svg version="1.1" id="Layer_1" xmlns="http://www.w3.org/2000/svg" xmlns:xlink="http://www.w3.org/1999/xlink" x="0px" y="0px"
	 viewBox="0 0 40 40" style="enable-background:new 0 0 40 40;" xml:space="preserve">
<path d="M37,0H3C1.3,0,0,1.3,0,2.9v34.2C0,38.7,1.3,40,3,40H37c1.6,0,3-1.3,3-2.9V2.9C40,1.3,38.7,0,37,0z M29.9,14.9
	c0,0.2,0,0.4,0,0.7c0,6.8-5.2,14.6-14.6,14.6c-2.9,0-5.6-0.8-7.9-2.3c0.4,0,0.8,0.1,1.2,0.1c2.4,0,4.6-0.8,6.4-2.2
	c-2.2,0-4.1-1.5-4.8-3.6c0.3,0.1,0.6,0.1,1,0.1c0.5,0,0.9-0.1,1.4-0.2c-2.3-0.5-4.1-2.5-4.1-5c0,0,0,0,0-0.1
	c0.7,0.4,1.5,0.6,2.3,0.6c-1.4-0.9-2.3-2.5-2.3-4.3c0-0.9,0.3-1.8,0.7-2.6c2.5,3.1,6.3,5.1,10.6,5.4c-0.1-0.4-0.1-0.8-0.1-1.2
	c0-2.8,2.3-5.1,5.1-5.1c1.5,0,2.8,0.6,3.7,1.6c1.2-0.2,2.3-0.7,3.3-1.2c-0.4,1.2-1.2,2.2-2.3,2.8c1-0.1,2-0.4,2.9-0.8
	C31.8,13.3,30.9,14.2,29.9,14.9z"/>
</svg>
